# xmcd CD database file
#
# Track frame offsets:
#	182
#	4430
#	122757
#	152857
#	154865
#	191540
#	222050
#	230407
#
# Disc length: 4046 seconds
#
# Revision: 0
# Processed by: cddbd v1.5PL3 Copyright (c) Steve Scherf et al.
# Submitted via: CDex 1.51
#
DISCID=650fcc08
DTITLE=Hampton Hawes - Live at The Jazz Showcase in Chicago II
DYEAR=1973
DGENRE=Jazz
TTITLE0=MC by Joe Segal
TTITLE1=Blue Bird - Blue Hamp
TTITLE2=My Funny Valentine
TTITLE3=Announcement by Hampton Hawes
TTITLE4=Walking Around The Town
TTITLE5=The Shadows Of Your Smile
TTITLE6=Carson Blues
TTITLE7=Spanish Mood
EXTD=YEAR: 1973
EXTT0=
EXTT1=
EXTT2=
EXTT3=
EXTT4=
EXTT5=
EXTT6=
EXTT7=
PLAYORDER=
